/* XPM */
static char * border_r_xpm[] = {
"32 32 2 1",
" 	c #000000",
".	c #2121FF",
"  ....        ....              ",
"  ....        ....              ",
"  ....        ....              ",
"  ....        ....              ",
"  ....        ....              ",
"  ....        ....              ",
"  ....        ....              ",
"  ....        ....              ",
"  ....        ....              ",
"  ....        ....              ",
"  ....        ....              ",
"  ....        ....              ",
"  ....        ....              ",
"  ....        ....              ",
"  ....        ....              ",
"  ....        ....              ",
"  ....        ....              ",
"  ....        ....              ",
"  ....        ....              ",
"  ....        ....              ",
"  ....        ....              ",
"  ....        ....              ",
"  ....        ....              ",
"  ....        ....              ",
"  ....        ....              ",
"  ....        ....              ",
"  ....        ....              ",
"  ....        ....              ",
"  ....        ....              ",
"  ....        ....              ",
"  ....        ....              ",
"  ....        ....              "};
