/* XPM */
static char * corner_b_xpm[] = {
"32 32 2 1",
" 	c #000000",
".	c #2121FF",
"              ....        ....  ",
"              ....        ..... ",
"              ....        ......",
"              ....         .....",
"               ....         ....",
"               ....          ...",
"               ....             ",
"                ....            ",
"                ....            ",
"                .....           ",
"                 .....          ",
"                  .....         ",
"                  .......       ",
"                   .........    ",
"                     ...........",
"                      ..........",
"                         .......",
"                            ....",
"                                ",
"                                ",
"                                ",
"                                ",
"                                ",
"                                ",
"                                ",
"                                ",
"                                ",
"                                ",
"                                ",
"                                ",
"                                ",
"                                "};
