/* XPM */
static char * pcm_b0_xpm[] = {
"32 32 2 1",
" 	c #000000",
".	c #FFFF00",
"                                ",
"            ........            ",
"         ..............         ",
"       ..................       ",
"      ....................      ",
"     ......................     ",
"    ........................    ",
"   ..........................   ",
"  ............................  ",
"  ............................  ",
" .............................. ",
" .............................. ",
" .............................. ",
"................................",
"................................",
"...............  ...............",
"...............  ...............",
"..............    ..............",
"..............    ..............",
".............      .............",
".............      .............",
" ............      ............ ",
" ...........        ........... ",
" ...........        ........... ",
"  ..........        ..........  ",
"  .........          .........  ",
"   ........          ........   ",
"    ......            ......    ",
"     .....            .....     ",
"      ...              ...      ",
"       ..              ..       ",
"                                "};
