/* XPM */
static char *_4d3d023f7494917d06a4678329881d8ahRrxTqCGujPeaAk[] = {
/* columns rows colors chars-per-pixel */
"32 32 148 2 ",
"   c #151D1E",
".  c #181E1E",
"X  c #221E1E",
"o  c #2B201D",
"O  c #31211D",
"+  c #1C2425",
"@  c #272522",
"#  c #2D2521",
"$  c #2A2926",
"%  c #232C2C",
"&  c #312D26",
"*  c #342F2B",
"=  c #36322F",
"-  c #2A3231",
";  c #2F3C3C",
":  c #3A3634",
">  c #333C3B",
",  c #442D24",
"<  c #482E24",
"1  c #433223",
"2  c #4C3626",
"3  c #4E3B26",
"4  c #4F362A",
"5  c #4F382D",
"6  c #513727",
"7  c #51372B",
"8  c #543C2C",
"9  c #593F2D",
"0  c #4A3F37",
"q  c #423F3C",
"w  c #553D30",
"e  c #56432E",
"r  c #59412D",
"t  c #4D433C",
"y  c #564330",
"u  c #5C4332",
"i  c #5D4834",
"p  c #50463F",
"a  c #604735",
"s  c #624C36",
"d  c #684E37",
"f  c #634C3C",
"g  c #6B4F38",
"h  c #6C5037",
"j  c #675038",
"k  c #6D543C",
"l  c #70543E",
"z  c #78583F",
"x  c #354443",
"c  c #3B4444",
"v  c #3D494B",
"b  c #474541",
"n  c #4C4945",
"m  c #414C4C",
"M  c #494D4B",
"N  c #564C40",
"B  c #5B4D45",
"V  c #514F4B",
"C  c #47504F",
"Z  c #4F534F",
"A  c #555041",
"S  c #54534E",
"D  c #5D584D",
"F  c #424F50",
"G  c #455454",
"H  c #4B5757",
"J  c #4B5956",
"K  c #4B5758",
"L  c #4C5B5B",
"P  c #545450",
"I  c #5F5A57",
"U  c #515D5D",
"Y  c #6A4E40",
"T  c #665543",
"R  c #6E5243",
"E  c #745740",
"W  c #745B43",
"Q  c #7C5F44",
"!  c #625B52",
"~  c #695F54",
"^  c #615D5B",
"/  c #4E605F",
"(  c #50605F",
")  c #7F674E",
"_  c #656153",
"`  c #4F5F60",
"'  c #515F60",
"]  c #4F6160",
"[  c #536363",
"{  c #5B6564",
"}  c #5D6967",
"|  c #586768",
" . c #5C6B6B",
".. c #5F6F70",
"X. c #666965",
"o. c #616D6D",
"O. c #626F70",
"+. c #647374",
"@. c #6B7675",
"#. c #697778",
"$. c #6C7B7C",
"%. c #707571",
"&. c #707877",
"*. c #727D7D",
"=. c #876F56",
"-. c #896C54",
";. c #90755A",
":. c #947B5F",
">. c #987C5F",
",. c #9C7D65",
"<. c #70807F",
"1. c #78827F",
"2. c #A58A6B",
"3. c #A9906C",
"4. c #727F80",
"5. c #6F8181",
"6. c #738383",
"7. c #748483",
"8. c #738484",
"9. c #748484",
"0. c #818680",
"q. c #848882",
"w. c #878E88",
"e. c #8C9089",
"r. c #9DA198",
"t. c #A7A9A0",
"y. c #B7B7AC",
"u. c #B7B9AD",
"i. c #BDBDB2",
"p. c #C4C3B7",
"a. c #C4C4B7",
"s. c #C4C4B8",
"d. c #C8C8BB",
"f. c #C9C9BC",
"g. c #D2D1C4",
"h. c #D7D5C8",
"j. c #D7D6C8",
"k. c #DCDBCC",
"l. c #DDDBCD",
"z. c #E0DFD0",
"x. c #E1E0D1",
"c. c #E5E3D4",
"v. c #E8E6D7",
"b. c #E9E7D8",
"n. c #EBE9DA",
"m. c #ECEADB",
"M. c #EFEDDD",
"N. c #F1EFDF",
/* pixels */
"N.N.N.N.N.N.N.N.N.N.N.N.N.N.N.N.N.N.N.N.N.N.N.N.N.N.N.N.N.N.N.N.",
"N.N.N.N.N.N.N.N.N.N.N.N.N.N.N.N.N.N.N.N.N.N.N.N.N.N.N.N.N.N.N.N.",
"N.N.N.N.N.N.N.N.N.N.N.N.N.N.N.N.N.N.N.N.N.N.N.N.N.N.N.N.N.N.N.N.",
"N.N.N.N.N.N.N.N.N.N.N.N.N.N.N.N.N.N.N.N.N.N.N.N.N.N.N.N.N.N.N.N.",
"N.N.N.N.N.N.N.n.j.j.j.j.N.N.N.N.z.z.b.j.c.N.N.N.N.N.N.N.N.N.N.N.",
"N.N.N.N.N.N.N.f.K L L L L m.l.0.K L L L K y.c.j.N.N.N.N.N.N.N.N.",
"N.N.N.N.N.N.n.G o.$.&.@.| L '  .@.*.$.+. .L K G N.N.N.N.N.N.N.N.",
"N.N.N.N.N.M.H | #.6.~ T } L [ #.6.7.6.%.f P [ [ K N.j.N.N.N.N.N.",
"N.N.N.c.c.H L ' +.^ :.2.I [ [ 6.8.8.6.Y 3.R  . .+.| L v.N.N.N.N.",
"N.N.m.[  .+.+...U T -.=.B S S X.X.X.X.f >.f 6.8.8.$. .x.N.N.N.N.",
"N.N.M.| $.9.6.6.Z l z 9 ;.,.,.,.,.,.-.u Q 9 *.6.6.#.w.N.N.N.N.N.",
"N.N.m.[ +.6.4.$.M k E 9 l W W W W W g r Q r @.#.| [ ] x.N.N.N.N.",
"N.N.N.q.| +.#.O.n h k 8 t 0 0 t p t p r W 8 o.#. .L L K l.z.N.N.",
"N.N.N.l.L L  .[ b d k w G x c m H L J y W r {  .|  . .' H p.N.N.",
"N.N.l.H U | [ L q s h 5 c > > c m G C w l 7 H '  .*.$.| [ G N.N.",
"N.N.G L +.$. .C : s d 4 i f f f f f u 7 k 7 M H  .8.6.#.[ H N.N.",
"N.d.H | $.9.| c = i s 7 W ) ) ) ) ) E 7 k 4 c v | 9.6.#.[ H N.N.",
"N.y.H | $.9.[ ; * u s 2 9 r r r r r 8 6 j 4 > > [ 8.6.#.[ H N.N.",
"N.l.H | #.6.L % & r i 1 @ @ @ @ $ $ 1 s e & - - U 5.$.| ] G M.N.",
"N.N.H [ | +.G + # y u 1 . . . . . . 1 s 8 @ % % m  .| L H y.N.N.",
"N.N.a.H L L F + o w r , O O O O O O , a 3 X + + c L L K l.m.N.N.",
"N.N.N.y.H U | o.# 8 e < f T T T T f < i 3 X   > #. ./ l.N.N.N.N.",
"v.N.N.u.K | +.<.o.D D n N D _ _ _ ! V A t c #.$.6.#.[ q.N.N.N.N.",
"N.N.N.n.K K ( +.6.9.5. .L  .5.8.8.8.$.| / +.$.6.$.| K K M.N.N.N.",
"N.N.N.N.n.G K [ +.#.o.w.L  .#.*.*.*.+.| ` [ +.#. .K H v.N.N.N.N.",
"N.N.N.N.N.N.e.H [ | q.N.q.L | 1.1. . .L j.u.U L K G y.N.N.N.N.N.",
"N.N.N.N.N.N.N.g.t.s.z.N.m.m.l.g.g.j.r.v.N.N.j.g.i.y.c.N.N.N.N.N.",
"N.N.N.N.N.N.N.N.N.N.N.N.N.N.N.N.N.N.N.N.N.N.N.N.N.N.N.N.N.N.N.N.",
"N.N.N.N.N.N.N.N.N.N.N.N.N.N.N.N.N.N.N.N.N.N.N.N.N.N.N.N.N.N.N.N.",
"N.N.N.N.N.N.N.N.N.N.N.N.N.N.N.N.N.N.N.N.N.N.N.N.N.N.N.N.N.N.N.N.",
"N.N.N.N.N.N.N.N.N.N.N.N.N.N.N.N.N.N.N.N.N.N.N.N.N.N.N.N.N.N.N.N.",
"N.N.N.N.N.N.N.N.N.N.N.N.N.N.N.N.N.N.N.N.N.N.N.N.N.N.N.N.N.N.N.N."
};
