/* XPM */
static char * rock_xpm[] = {
"32 32 8 1",
" 	c #F1EFDF",
".	c #888078",
"+	c #C8B8B0",
"@	c #A8A098",
"#	c #605858",
"$	c #706868",
"%	c #484848",
"&	c #606068",
"                                ",
"             ....               ",
"            ..++@##             ",
"           .+++++@@#            ",
"         ..+++++++@.#           ",
"        .@+++++++++..#          ",
"        .++++++++++...#         ",
"       #@++++++++++.@@..        ",
"       #@+++++++++.@@@@.#       ",
"      ##@@+++++++@@.@@@#$#      ",
"     ##++@@+++++@@@@@..#..#     ",
"    #.++++@@@@@@@@++@@.#.$.#    ",
"    #.++++++@@@@++++@.#$...#    ",
"   #.#+++++@@+++++++.##....##   ",
"   #.#@+++@@+++++++@##$...$.#   ",
"   #%..@@@$@+++++++@#$...$$$#   ",
"   %..$$...@@++++@@.#$..$##%#   ",
"   %...$$$..@@@@@...#$$$##$#%   ",
"  &%....$$$$.@@@..$$##$##$$$%&  ",
"  %$$.....$.$$...$..$###$$$$$%  ",
"  %$#$....$...$$$...$##$$$$$$%  ",
" &%$$#$..$#.........#$$$$$$$#%& ",
" &%$$##$$##$.......$##$$$$$##%& ",
" &&#$$######......$####$$$##%&& ",
"  &%$$$###$$#$$$$$##########%&  ",
"  &&%$$$$#$$$######$$######%&&  ",
"   &&%%%###$$$$$$$$$#####%%&&   ",
"    &&&%%%%#$$$$$$$###%%%%&&    ",
"      &&&&%%##$####%%%%%&&&     ",
"        &&&&&%%%%%%%&&&&&       ",
"            &&&&&&&&&           ",
"                                "};
