/* XPM */
static char *result[] = {
/* columns rows colors chars-per-pixel */
"32 32 16 1 ",
"  c black",
". c #282838",
"X c #384040",
"o c #784040",
"O c #486060",
"+ c #C03838",
"@ c #B87020",
"# c #F06848",
"$ c #F8B020",
"% c #D8A078",
"& c #9088A8",
"* c #9890B0",
"= c #F8D0B8",
"- c #B8B0D0",
"; c #F1EFDF",
": c #E8E8F8",
/* pixels */
";;;;;;;;;;;;;;;;;;;;;;;;;;;;;;;;",
";;;;;;;;;;;;;;;;;;;;;;;;;;;;;;;;",
";;;;;;;;;;;;;;;;;;;;;;;;;;;;;;;;",
";;;;;;;;;;;;;;;;;;;;;;;;;;;;;;;;",
";;;;;;;;;;;;;;;;;;;;;;;;;;;;;;;;",
";;;;;;;;;;;;;     ;;;;;;;;;;;;;;",
";;;;;;;;;;;  OOOOX  ;;;;;;;;;;;;",
";;;;;;;;;; $$$$$$$$X ;;;;;;;;;;;",
";;;;;;;;; $$$$$$$$$$@  ;;;;;;;;;",
";;;;;;;;;o$$$$$$$$$$@ O ;;;;;;;;",
";;;;;;;XX@@$$OOOOO$@@XOO ;;;;;;;",
";;;;;;XOOX@@XOOOOXX@@XOO ;;;;;;;",
";;;;;;XOOX@XXXXXXXXX@XOO ;;;;;;;",
";;;;;;;OX@@XXXXXXXXX OO. ;;;;;;;",
";;;;;;;XO @XXXXXXX  OOX ;;;;;;;;",
";;;;;;;;X oo.........  ;;;;;;;;;",
";;;;;;;;;o% *%X%XXXXX ;;;;;;;;;;",
";;;;;;;;;o% :%%%%XXXX ;;;;;;;;;;",
";;;;;;;;;%====%%%XX. ;;;;;;;;;;;",
";;;;;;;;;;%==%%%oo* ;;;;;;;;;;;;",
";;;;;;;;;;;;*oo --: ;;;;;;;;;;;;",
";;;;;;;;;;;*:.+o -X- ;;;;;;;;;;;",
";;;;;;;;;;;* ##o O:- ;;;;;;;;;;;",
";;;;;;;;;;;o ++o O:- ;;;;;;;;;;;",
";;;;;;;;;;; %=oo  O& ;;;;;;;;;;;",
";;;;;;;;;;;X%=oXX   ;;;;;;;;;;;;",
";;;;;;;;;;;;  -&& ;;;;;;;;;;;;;;",
";;;;;;;;;;;;;    ;;;;;;;;;;;;;;;",
";;;;;;;;;;;;;;;;;;;;;;;;;;;;;;;;",
";;;;;;;;;;;;;;;;;;;;;;;;;;;;;;;;",
";;;;;;;;;;;;;;;;;;;;;;;;;;;;;;;;",
";;;;;;;;;;;;;;;;;;;;;;;;;;;;;;;;"
};
