/* XPM */
static char *result[] = {
/* columns rows colors chars-per-pixel */
"32 32 16 1 ",
"  c black",
". c #282838",
"X c #384040",
"o c #784040",
"O c #486060",
"+ c #C03838",
"@ c #B87020",
"# c #F06848",
"$ c #F8B020",
"% c #D8A078",
"& c #9088A8",
"* c #9890B0",
"= c #F8D0B8",
"- c #B8B0D0",
"; c #F1EFDF",
": c #E8E8F8",
/* pixels */
";;;;;;;;;;;;;;;;;;;;;;;;;;;;;;;;",
";;;;;;;;;;;;;;;;;;;;;;;;;;;;;;;;",
";;;;;;;;;;;;;;;;;;;;;;;;;;;;;;;;",
";;;;;;;;;;;;;;;;;;;;;;;;;;;;;;;;",
";;;;;;;;;;;;;;     ;;;;;;;;;;;;;",
";;;;;;;;;;;;  XOOOO  ;;;;;;;;;;;",
";;;;;;;;;;; X$$$$$$$$ ;;;;;;;;;;",
";;;;;;;;;  @$$$$$$$$$$ ;;;;;;;;;",
";;;;;;;; O @$$$$$$$$$$o;;;;;;;;;",
";;;;;;; OOX@@$OOOOO$$@@XX;;;;;;;",
";;;;;;; OOX@@XXOOOOX@@XOOX;;;;;;",
";;;;;;; OOX@XXXXXXXXX@XOOX;;;;;;",
";;;;;;; .OO XXXXXXXXX@@XO;;;;;;;",
";;;;;;;; XOO  XXXXXXX@ OX;;;;;;;",
";;;;;;;;;  .........oo X;;;;;;;;",
";;;;;;;;;; XXXXX%X%* %o;;;;;;;;;",
";;;;;;;;;; XXXX%%%%: %o;;;;;;;;;",
";;;;;;;;;;;  XX%%%====%;;;;;;;;;",
";;;;;;;;;;;; *oo%%%==%;;;;;;;;;;",
";;;;;;;;;;;; :-- oo*;;;;;;;;;;;;",
";;;;;;;;;;; - - OOo:*;;;;;;;;;;;",
";;;;;;;;;;; -:  +o##*;;;;;;;;;;;",
";;;;;;;;;;; -:O +o++ ;;;;;;;;;;;",
";;;;;;;;;;; &O  ooo==  ;;;;;;;;;",
";;;;;;;;;;;;   XXXo%= * ;;;;;;;;",
";;;;;;;;;;;; O=%X   OO ;;;;;;;;;",
";;;;;;;;;;;;; O: ;;;  ;;;;;;;;;;",
";;;;;;;;;;;;;;  ;;;;;;;;;;;;;;;;",
";;;;;;;;;;;;;;;;;;;;;;;;;;;;;;;;",
";;;;;;;;;;;;;;;;;;;;;;;;;;;;;;;;",
";;;;;;;;;;;;;;;;;;;;;;;;;;;;;;;;",
";;;;;;;;;;;;;;;;;;;;;;;;;;;;;;;;"
};
