/* XPM */
static char *result[] = {
/* columns rows colors chars-per-pixel */
"32 32 14 1 ",
"  c black",
". c #282838",
"X c #384040",
"o c #784040",
"O c #486060",
"+ c #B87020",
"@ c #F06848",
"# c #F8B020",
"$ c #D8A078",
"% c #9088A8",
"& c #F8D0B8",
"* c #B8B0D0",
"= c #F1EFDF",
"- c #E8E8F8",
/* pixels */
"================================",
"================================",
"================================",
"================================",
"=============X+++++X============",
"=========== XO#####OX ==========",
"========== XOO#####OOX =========",
"========== OO#######OO =========",
"========= XOO#######OOX ========",
"========= XOO#######OOX ========",
"========= XXO#######OXX ========",
"========= XXX+#####+XXX ========",
"========= .XX+++++++XX. ========",
"======== $ .XX+++++XX. $ =======",
"======== $ O..XXXXX..O $ =======",
"========= o OOOOOOOOO o ========",
"==========  XOOOOOOOX  =========",
"========== o          ==========",
"========= o  ****% X ===========",
"======== $o XX**%XX.@ ==========",
"======== $$X oO X-%o@o =========",
"=========     X--** @@ =========",
"===========  %****O o&& ========",
"===========X %**OO   && ========",
"=========== X OOO  O   =========",
"=========== O       ============",
"============ &o ================",
"============ ** ================",
"=============  =================",
"================================",
"================================",
"================================"
};
