/* XPM */
static char *result[] = {
/* columns rows colors chars-per-pixel */
"32 32 15 1 ",
"  c black",
". c #282838",
"X c #384040",
"o c #784040",
"O c #486060",
"+ c #C03838",
"@ c #B87020",
"# c #F06848",
"$ c #F8B020",
"% c #D8A078",
"& c #9890B0",
"* c #F8D0B8",
"= c #B8B0D0",
"- c #F1EFDF",
"; c #E8E8F8",
/* pixels */
"--------------------------------",
"--------------------------------",
"--------------------------------",
"--------------------------------",
"--------------------------------",
"------------XXXXXXX-------------",
"---------- XO$$$$$OX -----------",
"--------- XO@$$$$$@OX ----------",
"--------- OO$$$$$$$OO ----------",
"-------- XOO$$$$$$$OOX ---------",
"-------- XOO$$$$$$$OOX ---------",
"-------- XX  $$$$$$OXX ---------",
"-------- X XO  $$$@XXX ---------",
"-------o X OOOO X@@XXX o--------",
"------- % OO O  XX@XX % --------",
"------- % O    @@@@X.o% --------",
"-------- o %&XoooX&.%o ---------",
"--------- %%; %%% ;%% ----------",
"----------o%*******%o-----------",
"--------- +o%**%**%oO-----------",
"-------- o+o o%%%ooOo-----------",
"------- %ooX =OOO=o## ----------",
"------- %%  + ;O;+o#+ ----------",
"--------  - o+  o+o ** ---------",
"---------- X  === X ** ---------",
"---------- OOOO XX -  ----------",
"---------- XOO    --------------",
"----------- **X-----------------",
"----------- == -----------------",
"------------  ------------------",
"--------------------------------",
"--------------------------------"
};
