/* XPM */
static char * exit_open_xpm[] = {
"32 32 442 2",
"  	c #F1EFDF",
". 	c #F0EEDE",
"+ 	c #EBE9DA",
"@ 	c #D7D6C8",
"# 	c #D7D7C9",
"$ 	c #E0DFD0",
"% 	c #E1DFD1",
"& 	c #E9E7D8",
"* 	c #D7D5C8",
"= 	c #E4E2D4",
"- 	c #C9C9BC",
"; 	c #485758",
"> 	c #4B5C5B",
", 	c #4B5C5C",
"' 	c #4D5A5B",
") 	c #ECEADB",
"! 	c #DCDBCD",
"~ 	c #818680",
"{ 	c #495859",
"] 	c #4B5B5C",
"^ 	c #4B5958",
"/ 	c #B7B7AC",
"( 	c #E4E3D4",
"_ 	c #EBE9D9",
": 	c #435353",
"< 	c #616E6E",
"[ 	c #6F7879",
"} 	c #707877",
"| 	c #6F7776",
"1 	c #596968",
"2 	c #4C5C5C",
"3 	c #515F60",
"4 	c #5D6E6F",
"5 	c #697576",
"6 	c #70797A",
"7 	c #637272",
"8 	c #5D6B6B",
"9 	c #4A5858",
"0 	c #445252",
"a 	c #EFEDDD",
"b 	c #475757",
"c 	c #576666",
"d 	c #687A79",
"e 	c #738080",
"f 	c #695F54",
"g 	c #655343",
"h 	c #5D6967",
"i 	c #4E5F5F",
"j 	c #516262",
"k 	c #667676",
"l 	c #748383",
"m 	c #748483",
"n 	c #738383",
"o 	c #707571",
"p 	c #644F3D",
"q 	c #545450",
"r 	c #526362",
"s 	c #506160",
"t 	c #495959",
"u 	c #D6D6C8",
"v 	c #E5E3D4",
"w 	c #E5E3D5",
"x 	c #4C5657",
"y 	c #4F5A5C",
"z 	c #617272",
"A 	c #615D5B",
"B 	c #947B5F",
"C 	c #A58A6B",
"D 	c #5F5A57",
"E 	c #536464",
"F 	c #506262",
"G 	c #708282",
"H 	c #728484",
"I 	c #738484",
"J 	c #738180",
"K 	c #6A4E40",
"L 	c #A9906C",
"M 	c #6E5243",
"N 	c #5D6C6A",
"O 	c #5F6E6F",
"P 	c #637373",
"Q 	c #576767",
"R 	c #4E5E5E",
"S 	c #E7E5D6",
"T 	c #ECEADA",
"U 	c #506060",
"V 	c #5F6B6D",
"W 	c #627171",
"X 	c #617372",
"Y 	c #5F6F70",
"Z 	c #515B5A",
"` 	c #625145",
" .	c #896C56",
"..	c #876F56",
"+.	c #5B4D45",
"@.	c #54534F",
"#.	c #53524D",
"$.	c #656864",
"%.	c #676A66",
"&.	c #656962",
"*.	c #624939",
"=.	c #987C5F",
"-.	c #644B3B",
";.	c #748180",
">.	c #6E7F7F",
",.	c #5D6D6C",
"'.	c #E1E0D1",
").	c #EEEDDD",
"!.	c #596969",
"~.	c #6E7D7E",
"{.	c #748484",
"].	c #718383",
"^.	c #4F534F",
"/.	c #70533C",
"(.	c #78583F",
"_.	c #593F2E",
":.	c #90755A",
"<.	c #9C7D65",
"[.	c #9C7C64",
"}.	c #886B51",
"|.	c #5E4230",
"1.	c #7F5F45",
"2.	c #5B3F2D",
"3.	c #717B7A",
"4.	c #647575",
"5.	c #878E88",
"6.	c #607272",
"7.	c #718282",
"8.	c #727F80",
"9.	c #6D787A",
"0.	c #4A4C48",
"a.	c #6D523B",
"b.	c #745740",
"c.	c #583E2B",
"d.	c #70543E",
"e.	c #735C44",
"f.	c #745C44",
"g.	c #755C44",
"h.	c #745C43",
"i.	c #6B4F38",
"j.	c #59422E",
"k.	c #795F43",
"l.	c #59402D",
"m.	c #697774",
"n.	c #667576",
"o.	c #546565",
"p.	c #506161",
"q.	c #4F6160",
"r.	c #838881",
"s.	c #596869",
"t.	c #687878",
"u.	c #626F70",
"v.	c #4A4A45",
"w.	c #6C5037",
"x.	c #6F573C",
"y.	c #553E2D",
"z.	c #4F423B",
"A.	c #4A3F37",
"B.	c #4D4039",
"C.	c #50463F",
"D.	c #4E473F",
"E.	c #50463E",
"F.	c #5A412F",
"G.	c #775B41",
"H.	c #573F2D",
"I.	c #636D6D",
"J.	c #677477",
"K.	c #5E6E6E",
"L.	c #4C5D5D",
"M.	c #4D5D5D",
"N.	c #4C5758",
"O.	c #DDDBCD",
"P.	c #4F5B5C",
"Q.	c #5C6D6D",
"R.	c #556263",
"S.	c #474541",
"T.	c #684D37",
"U.	c #6E543C",
"V.	c #543E31",
"W.	c #445150",
"X.	c #354443",
"Y.	c #384545",
"Z.	c #414B4C",
"`.	c #485756",
" +	c #4C5A5B",
".+	c #4B5956",
"++	c #594031",
"@+	c #745840",
"#+	c #58402E",
"$+	c #5B6261",
"%+	c #5E6D6E",
"&+	c #5B6B6B",
"*+	c #5B6C6C",
"=+	c #5C6A6B",
"-+	c #535F60",
";+	c #465454",
">+	c #C4C3B7",
",+	c #4A5757",
"'+	c #515E5F",
")+	c #546464",
"!+	c #556364",
"~+	c #4E5C5B",
"{+	c #423F3C",
"]+	c #644C37",
"^+	c #6B5139",
"/+	c #4F382D",
"(+	c #3E4442",
"_+	c #323838",
":+	c #353E3D",
"<+	c #3D4343",
"[+	c #414B4A",
"}+	c #475151",
"|+	c #46504E",
"1+	c #543C30",
"2+	c #71563F",
"3+	c #533A2C",
"4+	c #4E5757",
"5+	c #505D60",
"6+	c #5F6D6E",
"7+	c #707F7F",
"8+	c #6D7D7D",
"9+	c #435252",
"0+	c #4F5F5F",
"a+	c #6E7E7E",
"b+	c #5C6A6A",
"c+	c #47504F",
"d+	c #3A3634",
"e+	c #614B37",
"f+	c #684F37",
"g+	c #4F352B",
"h+	c #5E4837",
"i+	c #634C3C",
"j+	c #634B3B",
"k+	c #5C4335",
"l+	c #523A2E",
"m+	c #6D563E",
"n+	c #50382B",
"o+	c #484E4E",
"p+	c #475354",
"q+	c #5D6D6D",
"r+	c #536363",
"s+	c #445454",
"t+	c #C8C8BB",
"u+	c #465656",
"v+	c #5A6767",
"w+	c #394343",
"x+	c #36322F",
"y+	c #5E4934",
"z+	c #654E34",
"A+	c #51372B",
"B+	c #775F46",
"C+	c #7F674E",
"D+	c #7E674D",
"E+	c #715941",
"F+	c #52392E",
"G+	c #6A543B",
"H+	c #4F372B",
"I+	c #3C4646",
"J+	c #3D494B",
"K+	c #455555",
"L+	c #B6B7AC",
"M+	c #2F3C3C",
"N+	c #342F2B",
"O+	c #5E4531",
"P+	c #614D33",
"Q+	c #4C3626",
"R+	c #573D2A",
"S+	c #59402C",
"T+	c #553B28",
"U+	c #513727",
"V+	c #675038",
"W+	c #4E3729",
"X+	c #303C3B",
"Y+	c #353D3C",
"Z+	c #566362",
"`+	c #728383",
" @	c #6B7B7B",
".@	c #232E2E",
"+@	c #302D26",
"@@	c #5B452F",
"#@	c #5E4834",
"$@	c #453324",
"%@	c #272521",
"&@	c #272522",
"*@	c #2A2927",
"=@	c #2A2925",
"-@	c #443324",
";@	c #614B35",
">@	c #56412E",
",@	c #322D25",
"'@	c #283131",
")@	c #2B3331",
"!@	c #515E5D",
"~@	c #6F8181",
"{@	c #6C7D7E",
"]@	c #5A6A6A",
"^@	c #4F6060",
"/@	c #EFEDDE",
"(@	c #465455",
"_@	c #526061",
":@	c #586868",
"<@	c #627373",
"[@	c #455151",
"}@	c #1B2323",
"|@	c #2C2520",
"1@	c #564330",
"2@	c #5D4531",
"3@	c #433122",
"4@	c #181E1E",
"5@	c #161E1F",
"6@	c #161E1E",
"7@	c #161D1E",
"8@	c #403121",
"9@	c #614D37",
"0@	c #523C2B",
"a@	c #252421",
"b@	c #212929",
"c@	c #242C2C",
"d@	c #424F4F",
"e@	c #5B6D6C",
"f@	c #5B6969",
"g@	c #4E595A",
"h@	c #C4C4B7",
"i@	c #485656",
"j@	c #4D5F5E",
"k@	c #424F50",
"l@	c #1E2626",
"m@	c #2B201D",
"n@	c #563E30",
"o@	c #5B442F",
"p@	c #432D22",
"q@	c #31211E",
"r@	c #31211C",
"s@	c #31201D",
"t@	c #412C23",
"u@	c #604735",
"v@	c #4F3B26",
"w@	c #231F1F",
"x@	c #1C2426",
"y@	c #384343",
"z@	c #4D5E5D",
"A@	c #4E5E5D",
"B@	c #4D5758",
"C@	c #4C5656",
"D@	c #505D5D",
"E@	c #586768",
"F@	c #606F6E",
"G@	c #2D2421",
"H@	c #523E2D",
"I@	c #56452D",
"J@	c #482E24",
"K@	c #634F3E",
"L@	c #675643",
"M@	c #675641",
"N@	c #634D3D",
"O@	c #472F26",
"P@	c #5A4831",
"Q@	c #4C3B26",
"R@	c #211C1D",
"S@	c #10181A",
"T@	c #313B3B",
"U@	c #667776",
"V@	c #4F605F",
"W@	c #DDDCCD",
"X@	c #E8E6D7",
"Y@	c #B7B9AD",
"Z@	c #556565",
"`@	c #637071",
" #	c #70807F",
".#	c #636B6B",
"+#	c #5A584E",
"@#	c #5F594F",
"##	c #4D4845",
"$#	c #564C40",
"%#	c #5E5849",
"&#	c #656052",
"*#	c #656154",
"=#	c #625B52",
"-#	c #514F4B",
";#	c #555041",
">#	c #4B423C",
",#	c #3D4545",
"'#	c #6A7879",
")#	c #6D7E7D",
"!#	c #738382",
"~#	c #6A7778",
"{#	c #E9E8D8",
"]#	c #485858",
"^#	c #50605F",
"/#	c #657171",
"(#	c #728281",
"_#	c #748585",
":#	c #6E8080",
"<#	c #5C6F6F",
"[#	c #4B5D5C",
"}#	c #5A6D6D",
"|#	c #6F8282",
"1#	c #738586",
"2#	c #738584",
"3#	c #6C7E7D",
"4#	c #586A6A",
"5#	c #4D605F",
"6#	c #6B7D7D",
"7#	c #6F7A7B",
"8#	c #4A5A5A",
"9#	c #EEECDC",
"0#	c #687778",
"a#	c #606E6F",
"b#	c #5E6D6D",
"c#	c #6A7978",
"d#	c #737E7E",
"e#	c #747F7F",
"f#	c #747E7F",
"g#	c #657374",
"h#	c #4F5F60",
"i#	c #647474",
"j#	c #4B5B5B",
"k#	c #475656",
"l#	c #E7E6D7",
"m#	c #8C9089",
"n#	c #526262",
"o#	c #556465",
"p#	c #848983",
"q#	c #848882",
"r#	c #78827F",
"s#	c #5F6D6D",
"t#	c #5A6B6C",
"u#	c #4E5B5B",
"v#	c #B7B8AD",
"w#	c #505E5F",
"x#	c #4C5E5E",
"y#	c #495A5A",
"z#	c #455354",
"A#	c #D3D2C4",
"B#	c #A7A9A0",
"C#	c #C4C4B8",
"D#	c #EDEBDC",
"E#	c #DAD9CA",
"F#	c #D0D0C3",
"G#	c #D5D4C7",
"H#	c #9DA198",
"I#	c #BDBDB2",
"                                                                ",
"                                                                ",
"                                                                ",
"                                                                ",
"          .   + @ @ # #         $ % & * =                       ",
"              - ; > > , ' ) ! ~ { > > ] ^ / ( @                 ",
"            _ : < [ } | 1 2 3 4 5 6 [ 7 8 ' 9 0                 ",
"          a b c d e f g h i j k l m n o p q r s t   u           ",
"      v w x y 3 z A B C D E F G H I J K L M N O P Q R S         ",
"    T U V W X Y Z `  ...+.@.#.$.%.%.&.*.=.-.;.I I >.,.'.        ",
"    ).!.~.{.n ].^./.(._.:.<.<.<.[.<.}.|.1.2.3.n G 4.5.          ",
"    ) E 6.7.8.9.0.a.b.c.d.e.f.e.g.h.i.j.k.l.m.n.o.p.q.'.        ",
"      r.s.P t.u.v.w.x.y.z.A.A.B.C.D.E.F.G.H.I.J.K.L.M.N.O.$     ",
"      O.P.R Q.R.S.T.U.V.W.X.Y.Z.`. +.+++@+#+$+%+&+*+=+-+;+>+    ",
"    O.,+'+)+!+~+{+]+^+/+(+_+:+<+[+}+|+1+2+3+4+5+6+7+8+&+U 9+    ",
"    : 0+P a+b+c+d+e+f+g+h+i+i+j+j+i+k+l+m+n+o+p+q+I n k r+s+    ",
"  t+u+!.a+{.v+w+x+y+z+A+B+C+D+C+C+C+E+F+G+H+I+J+c {.n k r+K+    ",
"  L+u+!.a+{.r M+N+O+P+Q+R+S+S+S+S+S+T+U+V+W+X+Y+Z+I `+k r+K+    ",
"  O.u+!. @7.' .@+@@@#@$@%@&@&@&@*@=@-@;@>@,@'@)@!@~@{@]@^@: /@  ",
"    (@_@:@<@[@}@|@1@2@3@4@5@6@5@6@7@8@9@0@a@b@c@d@e@f@g@(@L+    ",
"    h@i@~+j@k@l@m@n@o@p@q@r@r@r@r@s@t@u@v@w@x@}@y@z@A@B@O.)     ",
"      / C@D@E@F@G@H@I@J@K@L@L@M@M@N@O@P@Q@R@S@T@U@K.V@W@        ",
"X@    Y@9 Z@`@ #.#+#@###$#%#&#*#*#=#-#;#>#,#'#)#!#~#!+r.        ",
"      {#t ]#^#/#(#_#:#<#[#}#|#1#1#2#3#4#5#X 6#`+7#Z@8#]#9#      ",
"        {#p+]#U 7 0#a#5.0+b#c#d#e#f#g#!.h#j P i#8 j#k#l#        ",
"            m#s+n#o#p#  q#R ]@r#r#s#t#u#@ v#w#x#y#z#/           ",
"              A#B#C#%   D#) E#F#F#G#H#S     u F#I#/ (           ",
"                                                                ",
"                                        .                       ",
"                                                                ",
"                                                                ",
"                                                                "};
