/* XPM */
static char * exit_closed_xpm[] = {
"32 32 181 2",
"  	c #F1EFDF",
". 	c #EBE9DA",
"+ 	c #D7D6C8",
"@ 	c #E0DFD0",
"# 	c #E9E7D8",
"$ 	c #E5E3D4",
"% 	c #C9C9BC",
"& 	c #4B5758",
"* 	c #4C5B5B",
"= 	c #ECEADB",
"- 	c #DDDBCD",
"; 	c #818680",
"> 	c #B7B7AC",
", 	c #455454",
"' 	c #616D6D",
") 	c #767880",
"! 	c #77787F",
"~ 	c #6B7675",
"{ 	c #586768",
"] 	c #74757D",
"^ 	c #75767E",
"/ 	c #5E6C6C",
"( 	c #777880",
"_ 	c #647374",
": 	c #5C6B6B",
"< 	c #656B70",
"[ 	c #64696F",
"} 	c #EFEDDD",
"| 	c #4B5757",
"1 	c #697778",
"2 	c #777881",
"3 	c #777780",
"4 	c #665543",
"5 	c #5D6967",
"6 	c #787880",
"7 	c #6E777B",
"8 	c #738383",
"9 	c #777A81",
"0 	c #707571",
"a 	c #634C3C",
"b 	c #676E73",
"c 	c #536363",
"d 	c #515F60",
"e 	c #75757D",
"f 	c #A58A6B",
"g 	c #5F5A57",
"h 	c #748182",
"i 	c #738484",
"j 	c #6A4E40",
"k 	c #A9906C",
"l 	c #E8E6D7",
"m 	c #73767D",
"n 	c #77777F",
"o 	c #75767D",
"p 	c #79777D",
"q 	c #75747C",
"r 	c #76767E",
"s 	c #747076",
"t 	c #777981",
"u 	c #777B81",
"v 	c #75797F",
"w 	c #E1E0D1",
"x 	c #6C7B7C",
"y 	c #76757D",
"z 	c #7A787D",
"A 	c #7D787D",
"B 	c #7C787E",
"C 	c #79777F",
"D 	c #6C6466",
"E 	c #777980",
"F 	c #74787E",
"G 	c #878E88",
"H 	c #727F80",
"I 	c #494D4B",
"J 	c #76747A",
"K 	c #5B4335",
"L 	c #70543E",
"M 	c #766F70",
"N 	c #745B43",
"O 	c #77757B",
"P 	c #59412D",
"Q 	c #7C5F44",
"R 	c #4F6160",
"S 	c #848882",
"T 	c #626F70",
"U 	c #4C4945",
"V 	c #736A6A",
"W 	c #543C2C",
"X 	c #4D433C",
"Y 	c #50463F",
"Z 	c #727179",
"` 	c #77767F",
" .	c #6D7377",
"..	c #75777F",
"+.	c #77777E",
"@.	c #73757D",
"#.	c #C4C3B7",
"$.	c #515D5D",
"%.	c #76767F",
"&.	c #707077",
"*.	c #737178",
"=.	c #73747C",
"-.	c #72737A",
";.	c #756C6E",
">.	c #74767D",
",.	c #47504F",
"'.	c #3A3634",
").	c #757278",
"!.	c #4F362A",
"~.	c #5D4834",
"{.	c #716C70",
"].	c #51372B",
"^.	c #6D543C",
"/.	c #74747C",
"(.	c #C8C8BB",
"_.	c #748484",
":.	c #3B4444",
"<.	c #36322F",
"[.	c #747278",
"}.	c #78777D",
"|.	c #7F674E",
"1.	c #7B716D",
"2.	c #777276",
"3.	c #73737B",
"4.	c #3D494B",
"5.	c #6E6F76",
"6.	c #6C6B72",
"7.	c #74737B",
"8.	c #77767E",
"9.	c #747178",
"0.	c #6A6162",
"a.	c #6A6367",
"b.	c #70737A",
"c.	c #6D6E75",
"d.	c #6B6B72",
"e.	c #76747B",
"f.	c #72727A",
"g.	c #707279",
"h.	c #767A81",
"i.	c #1C2425",
"j.	c #2D2521",
"k.	c #433223",
"l.	c #181E1E",
"m.	c #6D6D75",
"n.	c #65656C",
"o.	c #624C36",
"p.	c #232C2C",
"q.	c #414C4C",
"r.	c #C4C4B7",
"s.	c #424F50",
"t.	c #2B201D",
"u.	c #442D24",
"v.	c #31211D",
"w.	c #68666D",
"x.	c #604735",
"y.	c #4E3B26",
"z.	c #74767E",
"A.	c #727077",
"B.	c #787780",
"C.	c #76757C",
"D.	c #70747A",
"E.	c #666D71",
"F.	c #B7B9AD",
"G.	c #71747B",
"H.	c #76777F",
"I.	c #50605F",
"J.	c #4E605F",
"K.	c #72767D",
"L.	c #677073",
"M.	c #727D7D",
"N.	c #737C7E",
"O.	c #687477",
"P.	c #4F5F60",
"Q.	c #6B7076",
"R.	c #8C9089",
"S.	c #78827F",
"T.	c #D2D1C4",
"U.	c #A7A9A0",
"V.	c #C4C4B8",
"W.	c #9DA198",
"X.	c #BDBDB2",
"                                                                ",
"                                                                ",
"                                                                ",
"                                                                ",
"              . + + + +         @ @ # + $                       ",
"              % & * * * * = - ; & * * * & > $ +                 ",
"            . , ' ) ! ~ { ] ^ / ~ ( ( _ : < [ ,                 ",
"          } | { 1 2 3 4 5 3 6 7 8 9 9 0 a 6 b c &   +           ",
"      $ $ | * d _ e 6 f g ] 3 h i 6 6 j k 6 6 : _ { * l         ",
"    = c : m 6 n o 6 6 p q n 6 6 r 6 6 s 6 6 t 6 u v : w         ",
"    } { x u 6 t e 6 6 y z 6 6 A B 6 C D 6 6 E 6 u F G           ",
"    = c _ 8 H x I J 6 K L M 6 N N O 6 P Q 6 6 1 { c R w         ",
"      S { _ 1 T U V 6 W X 6 6 X Y Z ` P N 6  .1 : * * & - @     ",
"      - * ] ..6 3 6 6 6 6 6 6 6 6 3 6 6 +.6 6 6 @.6 : d | #.    ",
"    - | $.^ %.6 &.6 6 *.=.6 6 -.6 6 6 6 ;.n 6 ^ >.6 x { c ,     ",
"    , * _ x : ,.'.).6 !.~.6 n a a {.6 ].^.*./.| : i 8 1 c |     ",
"  (.| { x _.{ :.<.[.6 ].N }.6 |.|.1.2.].^.6 3.4.{ _.8 1 c |     ",
"  > | { x t 6 5.6.6 6 7.8.n 6 9.0.n 6 a.n q 6 6 b.u 6 1 c |     ",
"  - | { 1 t 6 c.d.6 6 7.r %.6 r /.6 6 e.8.f.r 6 g.h.6 { R , }   ",
"    | c { _ , i.j.r 8.k.l.m.6 l.l.n.q o.W 6 6 p.q.: { * | >     ",
"    r.| * * s.i.t.6 6 u.v.w.3 v.v.r r x.y.m.6 i.:.* * & - =     ",
"      > | g.z.6 6 6 6 A.y 6 6 6 n B.6 C.r 6 6 6 6 D.E.-         ",
"l     F.& G.H.6 6 6 6 6 3 6 6 B.n 6 6 y 6 6 6 6 t 6 b S         ",
"      . & & I._ 8 6 6 : * ( 6 i i 6 6 { J.K.6 8 x { & & }       ",
"        . , & c _ H.^ G * L.6 M.M.N.O.{ P.Q.6 1 : & | l         ",
"            R.| c { S   S * { S.S.: : * + F.$.* & , >           ",
"              T.U.V.@   = = - T.T.+ W.l     + T.X.> $           ",
"                                                                ",
"                                                                ",
"                                                                ",
"                                                                ",
"                                                                "};
