/* XPM */
static char *_651b6cfb8d24b358a913e16cb5f7290u8VpwtjKFODG9v7W[] = {
/* columns rows colors chars-per-pixel */
"32 32 36 1 ",
"  c #000100",
". c #000404",
"X c #0D0B0C",
"o c #0C0C0C",
"O c #181818",
"+ c #790303",
"@ c #7D0F0E",
"# c #7C100E",
"$ c #6E6B68",
"% c #810000",
"& c #850000",
"* c #870B0D",
"= c #840C0D",
"- c #9F0304",
"; c #A60000",
": c #A80000",
"> c #AD0000",
", c #B31F1F",
"< c #B71F1F",
"1 c #B32D2E",
"2 c #B42C2E",
"3 c #CE2626",
"4 c #C42829",
"5 c #D02627",
"6 c #D02629",
"7 c #FF8D73",
"8 c #F99677",
"9 c #F79975",
"0 c #F69779",
"q c #888888",
"w c gray56",
"e c #F1EFDF",
"r c gray92",
"t c #EDFBFE",
"y c gray95",
"u c gray97",
/* pixels */
"eeeeeeeeeeeeeeeeeeeeeeeeeeeeeeee",
"eeeeeeeeeeeeeeeeeeeeeeeeeeeeeeee",
"eeeeeeeeeeeeeeeeeeeeeeeeeeeeeeee",
"eeeeeeeeeeeeeeeeeeeeeeeeeeeeeeee",
"eeeeeeeeeeeeeeeeeeeeeeeeeeeeeeee",
"eeeeeeeeeeeeeeeeeeeeeeeeeeeeeeee",
"eeeeeeeeeeeeeeeeeeeeeeeeeeeeeeee",
"eeeeeeeeeeeeeeeeeeeeeeeeeeeeeeee",
"eeeeeeeeeeeeeeeeeeeeeeeeeeeeeeee",
"eeeeeeeeeeeeeeooooeeeeeeeeeeeeee",
"eeeeeeeeeeeeOX=@@#Xoeeeeeeeeeeee",
"eeeeeeeeeeeo*4833:-+ eeeeeeeeeee",
"eeeeeeeeeeeo27t053;: eeeeeeeeeee",
"eeeeeeeeeeo@<59533;;& eeeeeeeeee",
"eeeeeeee$$o@,36  >;;% $$eeeeeeee",
"eeeeeee$$$o 13.uw ;%  $$$eeeeeee",
"eeeeee$$$$ouo  ww   w $$$$eeeeee",
"eeeeee$$$$$oruu  www $$$$$eeeeee",
"eeeeee$$$$$oqyuuwwww $$$$$eeeeee",
"eeeeee$$$$$$o wwww  $$$$$$eeeeee",
"eeeeeee$$$$$$$    $$$$$$$eeeeeee",
"eeeeeeee$$$$$$$$$$$$$$$$eeeeeeee",
"eeeeeeee$$$$$$$$$$$$$$$$eeeeeeee",
"eeeeeeeeee$$$$$$$$$$$$eeeeeeeeee",
"eeeeeeeeeeee$$$$$$$$eeeeeeeeeeee",
"eeeeeeeeeeeeeeeeeeeeeeeeeeeeeeee",
"eeeeeeeeeeeeeeeeeeeeeeeeeeeeeeee",
"eeeeeeeeeeeeeeeeeeeeeeeeeeeeeeee",
"eeeeeeeeeeeeeeeeeeeeeeeeeeeeeeee",
"eeeeeeeeeeeeeeeeeeeeeeeeeeeeeeee",
"eeeeeeeeeeeeeeeeeeeeeeeeeeeeeeee",
"eeeeeeeeeeeeeeeeeeeeeeeeeeeeeeee"
};
