/* XPM */
static char * corner_l_xpm[] = {
"32 32 2 1",
" 	c #000000",
".	c #2121FF",
"                                ",
"                                ",
"                                ",
"                                ",
"                                ",
"                                ",
"                                ",
"                                ",
"                                ",
"                                ",
"                                ",
"                                ",
"                                ",
"                                ",
"                            ....",
"                         .......",
"                      ..........",
"                     ...........",
"                   .........    ",
"                  .......       ",
"                  .....         ",
"                 .....          ",
"                .....           ",
"                ....            ",
"                ....            ",
"               ....             ",
"               ....          ...",
"               ....         ....",
"              ....         .....",
"              ....        ......",
"              ....        ..... ",
"              ....        ....  "};
