/* XPM */
static char *_52be6dd813d400ee765ab8abd3b347cris1nvwfWmMh3y5W[] = {
/* columns rows colors chars-per-pixel */
"32 32 35 1 ",
"  c #000100",
". c #000404",
"X c #0D0B0C",
"o c #0C0C0C",
"O c #181818",
"+ c #790303",
"@ c #7D0F0E",
"# c #7C100E",
"$ c #524F4C",
"% c #810000",
"& c #850000",
"* c #870B0D",
"= c #840C0D",
"- c #9F0304",
"; c #A60000",
": c #A80000",
"> c #AD0000",
", c #B31F1F",
"< c #B71F1F",
"1 c #B32D2E",
"2 c #B42C2E",
"3 c #CE2626",
"4 c #C42829",
"5 c #D02627",
"6 c #D02629",
"7 c #FF8D73",
"8 c #F99677",
"9 c #F79975",
"0 c #F69779",
"q c #888888",
"w c gray56",
"e c gray92",
"r c #EDFBFE",
"t c gray95",
"y c #F1EFDF",
/* pixels */
"yyyyyyyyyyyyyyyyyyyyyyyyyyyyyyyy",
"yyyyyyyyyyyyyyyyyyyyyyyyyyyyyyyy",
"yyyyyyyyyyyyyyyyyyyyyyyyyyyyyyyy",
"yyyyyyyyyyyyyyyyyyyyyyyyyyyyyyyy",
"yyyyyyyyyyyyyyyyyyyyyyyyyyyyyyyy",
"yyyyyyyyyyyyyyyyyyyyyyyyyyyyyyyy",
"yyyyyyyyyyyyyyyyyyyyyyyyyyyyyyyy",
"yyyyyyyyyyyyyyyyyyyyyyyyyyyyyyyy",
"yyyyyyyyyyyyyyyyyyyyyyyyyyyyyyyy",
"yyyyyyyyyyyyyyooooyyyyyyyyyyyyyy",
"yyyyyyyyyyyyOX=@@#Xoyyyyyyyyyyyy",
"yyyyyyyyyyyo*4833:-+ yyyyyyyyyyy",
"yyyyyyyyyyyo27r053;: yyyyyyyyyyy",
"yyyyyyyyyyo@<59533;;& yyyyyyyyyy",
"yyyyyyyy$$o@,36  >;;% $$yyyyyyyy",
"yyyyyyy$$$o 13.yw ;%  $$$yyyyyyy",
"yyyyyy$$$$oyo  ww   w $$$$yyyyyy",
"yyyyyy$$$$$oeyy  www $$$$$yyyyyy",
"yyyyyy$$$$$oqtyywwww $$$$$yyyyyy",
"yyyyyy$$$$$$o wwww  $$$$$$yyyyyy",
"yyyyyyy$$$$$$$    $$$$$$$yyyyyyy",
"yyyyyyyy$$$$$$$$$$$$$$$$yyyyyyyy",
"yyyyyyyy$$$$$$$$$$$$$$$$yyyyyyyy",
"yyyyyyyyyy$$$$$$$$$$$$yyyyyyyyyy",
"yyyyyyyyyyyy$$$$$$$$yyyyyyyyyyyy",
"yyyyyyyyyyyyyyyyyyyyyyyyyyyyyyyy",
"yyyyyyyyyyyyyyyyyyyyyyyyyyyyyyyy",
"yyyyyyyyyyyyyyyyyyyyyyyyyyyyyyyy",
"yyyyyyyyyyyyyyyyyyyyyyyyyyyyyyyy",
"yyyyyyyyyyyyyyyyyyyyyyyyyyyyyyyy",
"yyyyyyyyyyyyyyyyyyyyyyyyyyyyyyyy",
"yyyyyyyyyyyyyyyyyyyyyyyyyyyyyyyy"
};
